<svg width="64.000000" height="64.000000" viewBox="0 0 64 64" fill="none" xmlns="http://www.w3.org/2000/svg" xmlns:xlink="http://www.w3.org/1999/xlink">
	<desc>
			Created with Pixso.
	</desc>
	<defs>
		<clipPath id="clip9_8">
			<rect id="grommet-icons:figma" width="64.000000" height="64.000000" fill="white" fill-opacity="0"/>
		</clipPath>
	</defs>
	<g opacity="0.780000">
		<rect id="grommet-icons:figma" width="64.000000" height="64.000000" fill="#FFFFFF" fill-opacity="0"/>
		<g clip-path="url(#clip9_8)">
			<path id="Vector" d="M53.3333 32C53.3333 37.8911 48.5577 42.6667 42.6667 42.6667C36.7756 42.6667 32 37.8911 32 32C32 26.109 36.7756 21.3334 42.6667 21.3334C48.5577 21.3334 53.3333 26.109 53.3333 32Z" fill="#19BCFE" fill-opacity="1.000000" fill-rule="evenodd"/>
			<path id="Vector" d="M21.3334 64.0001C24.1624 64.0001 26.8755 62.8762 28.8759 60.8759C30.8762 58.8755 32 56.1624 32 53.3334L32 42.6667L21.3334 42.6667C18.5044 42.6667 15.7913 43.7905 13.7909 45.7909C11.7905 47.7914 10.6667 50.5044 10.6667 53.3334C10.6667 56.1624 11.7905 58.8755 13.7909 60.8759C15.7913 62.8762 18.5044 64.0001 21.3334 64.0001Z" fill="#09CF83" fill-opacity="1.000000" fill-rule="evenodd"/>
			<path id="Vector" d="M21.3334 42.6667L32 42.6667L32 21.3334L21.3334 21.3334C18.5044 21.3334 15.7913 22.4572 13.7909 24.4575C11.7905 26.458 10.6667 29.171 10.6667 32C10.6667 34.829 11.7905 37.5421 13.7909 39.5425C15.7913 41.5428 18.5044 42.6667 21.3334 42.6667Z" fill="#A259FF" fill-opacity="1.000000" fill-rule="evenodd"/>
			<path id="Vector" d="M21.3334 21.3334L32 21.3334L32 0L21.3334 0C18.5044 0 15.7913 1.12378 13.7909 3.12415C11.7905 5.12463 10.6667 7.83765 10.6667 10.6666C10.6667 13.4956 11.7905 16.2087 13.7909 18.2091C15.7913 20.2095 18.5044 21.3334 21.3334 21.3334Z" fill="#F24E1E" fill-opacity="1.000000" fill-rule="evenodd"/>
			<path id="Vector" d="M42.6667 21.3334L32 21.3334L32 0L42.6667 0C45.4956 0 48.2088 1.12378 50.2091 3.12415C52.2095 5.12463 53.3333 7.83765 53.3333 10.6666C53.3333 13.4956 52.2095 16.2087 50.2091 18.2091C48.2088 20.2095 45.4956 21.3334 42.6667 21.3334Z" fill="#FF7262" fill-opacity="1.000000" fill-rule="evenodd"/>
		</g>
	</g>
</svg>
