<svg width="36.000000" height="36.000000" viewBox="0 0 36 36" fill="none" xmlns="http://www.w3.org/2000/svg" xmlns:xlink="http://www.w3.org/1999/xlink">
	<desc>
			Created with Pixso.
	</desc>
	<defs>
		<clipPath id="clip58_2">
			<rect id="bx:bxl-instagram" width="36.000000" height="36.000000" fill="white" fill-opacity="0"/>
		</clipPath>
	</defs>
	<rect id="bx:bxl-instagram" width="36.000000" height="36.000000" fill="#FFFFFF" fill-opacity="0"/>
	<g clip-path="url(#clip58_2)">
		<path id="Vector" d="M17.9985 11.0654C16.159 11.0654 14.3948 11.7961 13.094 13.0969C11.7933 14.3977 11.0625 16.1619 11.0625 18.0015C11.0625 19.8409 11.7933 21.6052 13.094 22.9059C14.3948 24.2067 16.159 24.9374 17.9985 24.9374C19.838 24.9374 21.6022 24.2067 22.903 22.9059C24.2038 21.6052 24.9345 19.8409 24.9345 18.0015C24.9345 16.1619 24.2038 14.3977 22.903 13.0969C21.6022 11.7961 19.838 11.0654 17.9985 11.0654ZM17.9985 22.506C16.8034 22.506 15.6573 22.0312 14.8123 21.1862C13.9672 20.3411 13.4925 19.1949 13.4925 17.9999C13.4925 16.8048 13.9672 15.6587 14.8123 14.8137C15.6573 13.9686 16.8034 13.4939 17.9985 13.4939C19.1936 13.4939 20.3397 13.9686 21.1847 14.8137C22.0298 15.6587 22.5045 16.8048 22.5045 17.9999C22.5045 19.1949 22.0298 20.3411 21.1847 21.1862C20.3397 22.0312 19.1936 22.506 17.9985 22.506Z" fill="#FFFFFF" fill-opacity="0.780000" fill-rule="nonzero"/>
		<path id="Vector" d="M26.826 10.8105C26.826 11.7036 26.1021 12.4276 25.209 12.4276C24.316 12.4276 23.592 11.7036 23.592 10.8105C23.592 9.9176 24.316 9.1936 25.209 9.1936C26.1021 9.1936 26.826 9.9176 26.826 10.8105Z" fill="#FFFFFF" fill-opacity="0.780000" fill-rule="evenodd"/>
		<path id="Vector" d="M30.7995 9.16663C30.4522 8.2699 29.9216 7.45544 29.2415 6.77563C28.5614 6.09583 27.7469 5.56543 26.85 5.21863C25.8005 4.82458 24.6918 4.61157 23.571 4.58862C22.1265 4.52551 21.669 4.50757 18.006 4.50757C14.343 4.50757 13.8735 4.50757 12.441 4.58862C11.3211 4.61035 10.2131 4.82349 9.16499 5.21863C8.2679 5.56506 7.45314 6.09521 6.77299 6.77515C6.09285 7.45508 5.56233 8.26965 5.21548 9.16663C4.82144 10.2159 4.60892 11.3248 4.58699 12.4456C4.52249 13.8885 4.50299 14.3461 4.50299 18.0106C4.50299 21.6736 4.50299 22.14 4.58699 23.5756C4.6095 24.6976 4.82098 25.8046 5.21548 26.8561C5.56331 27.7527 6.09433 28.5669 6.77464 29.2467C7.45496 29.9265 8.26959 30.4569 9.16649 30.8041C10.2126 31.2139 11.321 31.4421 12.444 31.4791C13.8885 31.5421 14.346 31.5615 18.009 31.5615C21.672 31.5615 22.1415 31.5615 23.574 31.4791C24.6946 31.4563 25.8033 31.2438 26.853 30.8506C27.7496 30.5028 28.5639 29.972 29.2439 29.292C29.924 28.6121 30.4548 27.7977 30.8025 26.9011C31.197 25.8511 31.4085 24.744 31.431 23.6221C31.4955 22.1791 31.515 21.7216 31.515 18.0571C31.515 14.3926 31.515 13.9276 31.431 12.4921C31.4135 11.3555 31.1999 10.2305 30.7995 9.16663ZM28.9725 23.4646C28.9628 24.329 28.805 25.1854 28.506 25.9966C28.2807 26.5798 27.9359 27.1096 27.4936 27.5516C27.0513 27.9937 26.5214 28.3381 25.938 28.5631C25.1358 28.8607 24.2885 29.0186 23.433 29.0295C22.008 29.0956 21.606 29.1121 17.952 29.1121C14.295 29.1121 13.9215 29.1121 12.4695 29.0295C11.6144 29.019 10.7675 28.8613 9.96599 28.5631C9.38052 28.3396 8.8485 27.9956 8.40433 27.5535C7.96016 27.1115 7.61374 26.5809 7.3875 25.9966C7.09267 25.1941 6.93495 24.3478 6.92099 23.493C6.85649 22.0681 6.84149 21.666 6.84149 18.0121C6.84149 14.3566 6.84149 13.983 6.92099 12.5295C6.93068 11.6656 7.08847 10.8097 7.3875 9.99902C7.84499 8.81555 8.78249 7.88403 9.96599 7.43103C10.7679 7.13428 11.6145 6.97656 12.4695 6.9646C13.896 6.90002 14.2965 6.88208 17.952 6.88208C21.6075 6.88208 21.9825 6.88208 23.433 6.9646C24.2886 6.97485 25.136 7.13269 25.938 7.43103C26.5214 7.65649 27.0512 8.00134 27.4934 8.4436C27.9357 8.88586 28.2806 9.41565 28.506 9.99902C28.8008 10.8015 28.9585 11.6478 28.9725 12.5026C29.037 13.9291 29.0535 14.3296 29.0535 17.9851C29.0535 21.639 29.0535 22.0321 28.989 23.4661L28.9725 23.4661L28.9725 23.4646Z" fill="#FFFFFF" fill-opacity="0.780000" fill-rule="nonzero"/>
	</g>
</svg>
