<svg width="65.000000" height="63.823364" viewBox="0 0 65 63.8234" fill="none" xmlns="http://www.w3.org/2000/svg" xmlns:xlink="http://www.w3.org/1999/xlink">
	<desc>
			Created with Pixso.
	</desc>
	<defs>
		<clipPath id="clip38_6">
			<rect id="logos:invision-icon" width="65.000000" height="63.823364" fill="white" fill-opacity="0"/>
		</clipPath>
	</defs>
	<g opacity="0.780000">
		<rect id="logos:invision-icon" width="65.000000" height="63.823364" fill="#FFFFFF" fill-opacity="0"/>
		<g clip-path="url(#clip38_6)">
			<path id="Vector" d="M4 0L61 0C63.2091 0 65 1.79089 65 4L65 59.8234C65 62.0325 63.2092 63.8234 61 63.8234L4 63.8234C1.79083 63.8234 0 62.0325 0 59.8234L0 4C0 1.79089 1.79083 0 4 0Z" fill="#FF0066" fill-opacity="1.000000" fill-rule="nonzero"/>
			<path id="Vector" d="M22.1179 20.5382C24.1737 20.5088 25.819 18.8535 25.7993 16.8346C25.7792 14.8154 24.1016 13.192 22.0452 13.2017C19.9888 13.2114 18.3273 14.8506 18.327 16.8698C18.3287 17.3556 18.4283 17.8363 18.6201 18.2842C18.8118 18.7321 19.092 19.1382 19.4444 19.4792C19.7968 19.8202 20.2145 20.0894 20.6733 20.2712C21.1321 20.453 21.6231 20.5438 22.1179 20.5385L22.1179 20.5382Z" fill="#FFFFFF" fill-opacity="1.000000" fill-rule="nonzero"/>
			<path id="Vector" d="M14.2581 40.178C14.0428 41.0813 13.9305 42.0052 13.9229 42.9329C13.9229 46.1622 15.7063 48.3065 19.4971 48.3065C22.6405 48.3065 25.191 46.4736 27.0242 43.5123L25.9034 47.9288L32.1434 47.9288L35.7134 33.8877C36.6051 30.3287 38.3314 28.4832 40.9522 28.4832C43.0139 28.4832 44.2959 29.7417 44.2959 31.8224C44.3061 32.4893 44.2121 33.1539 44.0176 33.7932L42.1793 40.2496C41.9164 41.1388 41.7852 42.0604 41.7896 42.9862C41.7896 46.0498 43.6279 48.2965 47.473 48.2965C50.7621 48.2965 53.3829 46.2183 54.8312 41.2375L52.3793 40.3057C51.1522 43.6449 50.0941 44.2473 49.2593 44.2473C48.4247 44.2473 47.9747 43.7013 47.9747 42.6058C47.9988 42.0311 48.0923 41.4612 48.2531 40.908L50.0392 34.6155C50.4403 33.3217 50.6471 31.9773 50.653 30.625C50.653 25.9172 47.7538 23.4615 44.2413 23.4615C40.9522 23.4615 37.6088 26.3743 35.9368 29.4406L37.1614 23.9363L27.6323 23.9363L26.2935 28.7869L30.7551 28.7869L28.0096 39.5704C25.8514 44.2782 21.8892 44.3547 21.3926 44.245C20.576 44.0635 20.056 43.7599 20.056 42.713C20.0798 41.8656 20.2109 41.0244 20.446 40.2087L24.6268 23.9235L14.0397 23.9235L12.7034 28.774L17.1051 28.774L14.2581 40.178Z" fill="#FFFFFF" fill-opacity="1.000000" fill-rule="nonzero"/>
		</g>
	</g>
</svg>
