<svg width="38.000000" height="38.000000" viewBox="0 0 38 38" fill="none" xmlns="http://www.w3.org/2000/svg" xmlns:xlink="http://www.w3.org/1999/xlink">
	<desc>
			Created with Pixso.
	</desc>
	<defs/>
	<rect id="Rectangle 220" rx="8.000000" width="38.000000" height="38.000000" fill="#FF6E30" fill-opacity="1.000000"/>
	<path id="Subtract" d="M19.9644 12.4358C19.632 12.4358 19.3089 12.4771 19 12.5542C19.1988 10.7605 19.9148 9.12402 20.9963 7.79492C25.2971 8.30469 28.6331 11.9646 28.6331 16.4028L28.6331 22.7295C28.4605 22.739 28.2864 22.7439 28.1112 22.7439C24.6706 22.7439 21.6709 20.8484 20.1028 18.0422L23.9315 18.0422L23.9315 16.4028C23.9315 14.2119 22.1554 12.4358 19.9644 12.4358Z" fill="#FFFFFF" fill-opacity="1.000000" fill-rule="evenodd"/>
	<path id="Subtract" d="M9.25642 16.9507C9.25642 11.625 13.5738 7.30762 18.8995 7.30762C21.5623 7.30762 23.9731 8.38696 25.7182 10.1321C24.1095 8.52344 21.9351 7.48047 19.5191 7.32715C17.894 9.12573 16.9044 11.5095 16.9044 14.1243C16.9044 14.3193 16.9099 14.5132 16.9208 14.7056C16.299 15.2539 15.9068 16.0564 15.9068 16.9507L15.9068 17.6157L21.8922 17.6157L17.5214 17.6157C18.9445 21.4968 22.672 24.2661 27.0462 24.2661C27.5546 24.2661 28.0542 24.2288 28.5425 24.1565L28.5425 28.2563L21.8922 28.2563L21.8922 24.2661L15.9068 24.2661L15.9068 28.2563L9.25642 28.2563L9.25642 20.9409L9.25642 16.9507Z" fill="#FFFFFF" fill-opacity="1.000000" fill-rule="evenodd"/>
</svg>
