<svg width="51.890182" height="52.162109" viewBox="0 0 51.8902 52.1621" fill="none" xmlns="http://www.w3.org/2000/svg" xmlns:xlink="http://www.w3.org/1999/xlink">
	<desc>
			Created with Pixso.
	</desc>
	<defs/>
	<path id="vector" d="M3.39226 2.19275L35.2951 0.0146484C36.6857 -0.0803223 38.0679 0.289307 39.2102 1.06165L50.4192 8.64001C51.3411 9.26331 51.8902 10.2822 51.8902 11.3696L51.8902 46.6475C51.8902 48.4049 50.4774 49.8601 48.6626 49.9718L13.254 52.1514C11.4433 52.2628 9.69307 51.5 8.5809 50.1145L1.70218 41.5452C0.598846 40.1707 0 38.4805 0 36.7408L0 5.71106C0 3.8595 1.48129 2.32324 3.39226 2.19275ZM5.29912 5.14221C4.7417 5.18213 4.53053 5.86658 4.97424 6.19507L9.41934 9.48608C10.1892 10.056 11.1449 10.3405 12.1131 10.2878L44.106 8.54785C44.3909 8.53235 44.4988 8.1803 44.2687 8.01733L38.2072 3.72278C37.4287 3.17126 36.4722 2.90625 35.5097 2.97522L5.29912 5.14221ZM12.5258 13.7861C11.4521 13.8446 10.6125 14.7031 10.6125 15.7424L10.6125 46.1641C10.6125 47.2915 11.5945 48.1864 12.7591 48.1201L46.3705 46.2076C47.4421 46.1467 48.2788 45.2891 48.2788 44.2516L48.2788 13.7047C48.2788 12.6918 47.3979 11.887 46.3514 11.944L12.5258 13.7861ZM16.4415 20.8323L16.4415 21.2385L19.1659 21.3916L19.1659 41.3536L18.1191 41.4636C17.0855 41.5721 16.3363 42.4666 16.4415 43.4662L24.3993 43.1121C25.3702 43.0688 26.1728 42.3657 26.3124 41.436L26.357 41.1393L23.1574 40.527L23.1574 25.5554L33.5525 41.2416C34.5701 42.7771 36.549 43.4314 38.3265 42.8202L40.4542 42.0884L40.4542 19.677L42.1495 19.3903C42.6346 19.3082 42.9885 18.9011 42.9885 18.4252L42.9885 17.4114L35.9435 17.7722C34.8669 17.8274 34.0233 18.6871 34.0233 19.729L34.0233 19.922L36.7794 20.2893L36.7794 34.1281L26.0719 18.3605L18.3292 18.8774C17.2663 18.9484 16.4415 19.8025 16.4415 20.8323Z" fill="#000000" fill-opacity="1.000000" fill-rule="evenodd"/>
</svg>
