<svg width="65.000000" height="63.823120" viewBox="0 0 65 63.8231" fill="none" xmlns="http://www.w3.org/2000/svg" xmlns:xlink="http://www.w3.org/1999/xlink">
	<desc>
			Created with Pixso.
	</desc>
	<defs>
		<clipPath id="clip32_0">
			<rect id="grommet-icons:slack" width="65.000000" height="63.823120" fill="white" fill-opacity="0"/>
		</clipPath>
	</defs>
	<g opacity="0.780000">
		<rect id="grommet-icons:slack" width="65.000000" height="63.823120" fill="#FFFFFF" fill-opacity="0"/>
		<g clip-path="url(#clip32_0)">
			<path id="Vector" d="M13.6717 40.2191C13.6724 41.0975 13.4967 41.9674 13.1546 42.7791C12.8125 43.5906 12.3108 44.328 11.6781 44.949C11.0454 45.5699 10.2942 46.0624 9.46751 46.3979C8.64081 46.7335 7.75481 46.9056 6.86024 46.9047C5.96613 46.905 5.08072 46.7323 4.25464 46.3964C3.42856 46.0605 2.67799 45.568 2.0459 44.9471C1.41379 44.3262 0.912521 43.5891 0.57077 42.7778C0.229034 41.9666 0.0534821 41.097 0.0541992 40.2191C0.0534821 39.3411 0.229111 38.4713 0.57103 37.6599C0.912949 36.8485 1.41446 36.1112 2.04684 35.4902C2.67924 34.8693 3.43011 34.377 4.25652 34.0411C5.08292 33.7054 5.96861 33.533 6.86295 33.5337L13.6744 33.5337L13.6744 40.2191L13.6717 40.2191ZM17.0761 40.2191C17.0754 39.3411 17.251 38.4713 17.5929 37.6599C17.9348 36.8485 18.4363 36.1112 19.0687 35.4902C19.7011 34.8693 20.452 34.377 21.2784 34.0411C22.1048 33.7054 22.9905 33.533 23.8848 33.5337C24.7792 33.533 25.6649 33.7054 26.4913 34.0411C27.3177 34.377 28.0685 34.8693 28.7009 35.4902C29.3333 36.1112 29.8348 36.8485 30.1767 37.6599C30.5187 38.4713 30.6943 39.3411 30.6936 40.2191L30.6936 56.9355C30.6943 57.8136 30.5187 58.6833 30.1767 59.4948C29.8348 60.3062 29.3333 61.0435 28.7009 61.6644C28.0685 62.2854 27.3177 62.7777 26.4913 63.1135C25.6649 63.4492 24.7792 63.6217 23.8848 63.621C22.9905 63.6217 22.1048 63.4492 21.2784 63.1135C20.452 62.7777 19.7011 62.2854 19.0687 61.6644C18.4363 61.0435 17.9348 60.3062 17.5929 59.4948C17.251 58.6833 17.0754 57.8136 17.0761 56.9355L17.0761 40.2191Z" fill="#E01E5A" fill-opacity="1.000000" fill-rule="evenodd"/>
			<path id="Vector" d="M23.8848 13.3737C22.9902 13.3743 22.1043 13.2018 21.2777 12.8658C20.4512 12.53 19.7002 12.0374 19.0677 11.4161C18.4353 10.7949 17.9339 10.0573 17.5921 9.24548C17.2503 8.43384 17.075 7.56384 17.076 6.68542C17.0753 5.80737 17.251 4.93762 17.5929 4.12622C17.9348 3.31482 18.4363 2.57751 19.0687 1.95654C19.7011 1.33557 20.452 0.843262 21.2784 0.507446C22.1048 0.171753 22.9904 -0.000732422 23.8848 0C24.7791 -0.000732422 25.6648 0.171753 26.4912 0.507446C27.3176 0.843262 28.0685 1.33557 28.7009 1.95654C29.3333 2.57751 29.8348 3.31482 30.1767 4.12622C30.5186 4.93762 30.6943 5.80737 30.6935 6.68542L30.6935 13.3762L23.8875 13.3762L23.8848 13.3737ZM23.8848 16.7668C24.7791 16.7661 25.6648 16.9386 26.4912 17.2743C27.3176 17.6101 28.0685 18.1025 28.7009 18.7234C29.3333 19.3444 29.8348 20.0817 30.1767 20.8931C30.5186 21.7045 30.6943 22.5742 30.6935 23.4524C30.6943 24.3304 30.5186 25.2002 30.1767 26.0116C29.8348 26.823 29.3333 27.5603 28.7009 28.1813C28.0685 28.8021 27.3176 29.2946 26.4912 29.6304C25.6648 29.9661 24.7791 30.1385 23.8848 30.1378L6.80875 30.1378C5.91464 30.1385 5.02916 29.9662 4.20294 29.6306C3.37672 29.295 2.62596 28.8029 1.99361 28.1821C1.36125 27.5615 0.859695 26.8246 0.517609 26.0134C0.175537 25.2023 -0.000350952 24.3329 0 23.455C-0.000717163 22.5769 0.174911 21.7072 0.51683 20.8958C0.858749 20.0844 1.36026 19.347 1.99265 18.7261C2.62505 18.1051 3.37592 17.6128 4.20232 17.277C5.02872 16.9413 5.91441 16.7688 6.80875 16.7695L23.8875 16.7695L23.8848 16.7668Z" fill="#36C5F0" fill-opacity="1.000000" fill-rule="evenodd"/>
			<path id="Vector" d="M51.1738 23.4524C51.173 22.574 51.3488 21.7041 51.6908 20.8925C52.0329 20.0808 52.5347 19.3435 53.1674 18.7225C53.8 18.1016 54.5512 17.6091 55.3779 17.2736C56.2047 16.938 57.0906 16.7659 57.9852 16.7668C58.8795 16.7661 59.7653 16.9386 60.5916 17.2743C61.418 17.6101 62.1689 18.1025 62.8013 18.7234C63.4337 19.3444 63.9352 20.0817 64.2771 20.8931C64.619 21.7046 64.7947 22.5742 64.794 23.4524C64.7947 24.3304 64.619 25.2002 64.2771 26.0116C63.9352 26.823 63.4337 27.5603 62.8013 28.1813C62.1689 28.8022 61.418 29.2946 60.5916 29.6304C59.7653 29.9661 58.8795 30.1385 57.9852 30.1378L51.1738 30.1378L51.1738 23.455L51.1738 23.4524ZM47.7694 23.4524C47.7701 24.3304 47.5945 25.2002 47.2525 26.0116C46.9106 26.823 46.4091 27.5603 45.7767 28.1813C45.1443 28.8022 44.3935 29.2946 43.5671 29.6304C42.7407 29.9661 41.855 30.1385 40.9606 30.1378C40.0661 30.1389 39.1801 29.9667 38.3534 29.6311C37.5267 29.2955 36.7755 28.8032 36.1428 28.1821C35.5101 27.5612 35.0083 26.8239 34.6663 26.0122C34.3242 25.2006 34.1485 24.3307 34.1492 23.4524L34.1492 6.68542C34.1485 5.80713 34.3242 4.93726 34.6663 4.12561C35.0083 3.31396 35.5101 2.57666 36.1428 1.95569C36.7755 1.33459 37.5267 0.842285 38.3534 0.506714C39.1801 0.171143 40.0661 -0.00109863 40.9606 0C41.855 -0.000732422 42.7407 0.171753 43.5671 0.507446C44.3935 0.843262 45.1443 1.33557 45.7767 1.95654C46.4091 2.57751 46.9106 3.31482 47.2525 4.12622C47.5945 4.93762 47.7701 5.80737 47.7694 6.68542L47.7694 23.455L47.7694 23.4524Z" fill="#2EB67D" fill-opacity="1.000000" fill-rule="evenodd"/>
			<path id="Vector" d="M40.9606 50.2473C41.8549 50.2467 42.7407 50.4191 43.567 50.7549C44.3934 51.0906 45.1443 51.583 45.7767 52.204C46.4091 52.8248 46.9106 53.5621 47.2525 54.3735C47.5945 55.1851 47.7701 56.0547 47.7694 56.9329C47.7704 57.8112 47.5951 58.6812 47.2533 59.4929C46.9115 60.3047 46.4101 61.0422 45.7777 61.6635C45.1452 62.2847 44.3943 62.7773 43.5677 63.1133C42.7411 63.4491 41.8552 63.6217 40.9606 63.621C40.066 63.6217 39.1801 63.4491 38.3535 63.1133C37.527 62.7773 36.776 62.2847 36.1436 61.6635C35.5111 61.0422 35.0097 60.3047 34.6679 59.4929C34.3262 58.6812 34.1508 57.8112 34.1519 56.9329L34.1519 50.2473L40.9606 50.2473ZM40.9606 46.9047C40.0663 46.9054 39.1806 46.7329 38.3542 46.3972C37.5278 46.0614 36.7769 45.569 36.1445 44.9481C35.5121 44.3271 35.0106 43.5898 34.6687 42.7784C34.3268 41.9669 34.1512 41.0973 34.1519 40.2191C34.1512 39.3411 34.3268 38.4713 34.6687 37.6599C35.0106 36.8485 35.5121 36.1112 36.1445 35.4902C36.7769 34.8693 37.5278 34.377 38.3542 34.0411C39.1806 33.7054 40.0663 33.533 40.9606 33.5337L58.0367 33.5337C58.931 33.533 59.8167 33.7054 60.6431 34.0411C61.4695 34.377 62.2204 34.8693 62.8528 35.4902C63.4851 36.1112 63.9866 36.8485 64.3286 37.6599C64.6705 38.4713 64.8461 39.3411 64.8454 40.2191C64.8461 41.0973 64.6705 41.9669 64.3286 42.7784C63.9866 43.5898 63.4851 44.3271 62.8528 44.9481C62.2204 45.569 61.4695 46.0614 60.6431 46.3972C59.8167 46.7329 58.931 46.9054 58.0367 46.9047L40.9606 46.9047Z" fill="#ECB22E" fill-opacity="1.000000" fill-rule="evenodd"/>
		</g>
	</g>
</svg>
