<svg width="0" height="0" class="hidden">
  <symbol fill="none" xmlns="http://www.w3.org/2000/svg" xmlns:xlink="http://www.w3.org/1999/xlink" viewBox="0 0 64 64"
    id="figma">
    <desc>Created with Pixso.</desc>
    <defs>
      <clipPath id="clip9_8">
        <rect id="grommet-icons:figma" width="64.000000" height="64.000000" fill="white" fill-opacity="0"></rect>
      </clipPath>
    </defs>
    <g opacity="0.780000">
      <rect id="grommet-icons:figma" width="64.000000" height="64.000000" fill="#FFFFFF" fill-opacity="0"></rect>
      <g clip-path="url(#clip9_8)">
        <path id="Vector"
          d="M53.3333 32C53.3333 37.8911 48.5577 42.6667 42.6667 42.6667C36.7756 42.6667 32 37.8911 32 32C32 26.109 36.7756 21.3334 42.6667 21.3334C48.5577 21.3334 53.3333 26.109 53.3333 32Z"
          fill="#19BCFE" fill-opacity="1.000000" fill-rule="evenodd"></path>
        <path id="Vector"
          d="M21.3334 64.0001C24.1624 64.0001 26.8755 62.8762 28.8759 60.8759C30.8762 58.8755 32 56.1624 32 53.3334L32 42.6667L21.3334 42.6667C18.5044 42.6667 15.7913 43.7905 13.7909 45.7909C11.7905 47.7914 10.6667 50.5044 10.6667 53.3334C10.6667 56.1624 11.7905 58.8755 13.7909 60.8759C15.7913 62.8762 18.5044 64.0001 21.3334 64.0001Z"
          fill="#09CF83" fill-opacity="1.000000" fill-rule="evenodd"></path>
        <path id="Vector"
          d="M21.3334 42.6667L32 42.6667L32 21.3334L21.3334 21.3334C18.5044 21.3334 15.7913 22.4572 13.7909 24.4575C11.7905 26.458 10.6667 29.171 10.6667 32C10.6667 34.829 11.7905 37.5421 13.7909 39.5425C15.7913 41.5428 18.5044 42.6667 21.3334 42.6667Z"
          fill="#A259FF" fill-opacity="1.000000" fill-rule="evenodd"></path>
        <path id="Vector"
          d="M21.3334 21.3334L32 21.3334L32 0L21.3334 0C18.5044 0 15.7913 1.12378 13.7909 3.12415C11.7905 5.12463 10.6667 7.83765 10.6667 10.6666C10.6667 13.4956 11.7905 16.2087 13.7909 18.2091C15.7913 20.2095 18.5044 21.3334 21.3334 21.3334Z"
          fill="#F24E1E" fill-opacity="1.000000" fill-rule="evenodd"></path>
        <path id="Vector"
          d="M42.6667 21.3334L32 21.3334L32 0L42.6667 0C45.4956 0 48.2088 1.12378 50.2091 3.12415C52.2095 5.12463 53.3333 7.83765 53.3333 10.6666C53.3333 13.4956 52.2095 16.2087 50.2091 18.2091C48.2088 20.2095 45.4956 21.3334 42.6667 21.3334Z"
          fill="#FF7262" fill-opacity="1.000000" fill-rule="evenodd"></path>
      </g>
    </g>
  </symbol>
  <symbol fill="none" xmlns="http://www.w3.org/2000/svg" xmlns:xlink="http://www.w3.org/1999/xlink" viewBox="0 0 30 30"
    id="folder">
    <desc>Created with Pixso.</desc>
    <defs>
      <clipPath id="clip50_165">
        <rect id="eva:folder-add-outline" width="30.000000" height="30.000000" fill="white" fill-opacity="0"></rect>
      </clipPath>
    </defs>
    <rect id="eva:folder-add-outline" width="30.000000" height="30.000000" fill="#FFFFFF" fill-opacity="0"></rect>
    <g clip-path="url(#clip50_165)">
      <path id="Vector"
        d="M17.5 16.25L16.25 16.25L16.25 15C16.25 14.6685 16.1183 14.3505 15.8839 14.1161C15.6495 13.8817 15.3315 13.75 15 13.75C14.6685 13.75 14.3505 13.8817 14.1161 14.1161C13.8817 14.3505 13.75 14.6685 13.75 15L13.75 16.25L12.5 16.25C12.1685 16.25 11.8505 16.3817 11.6161 16.6161C11.3817 16.8505 11.25 17.1685 11.25 17.5C11.25 17.8315 11.3817 18.1495 11.6161 18.3839C11.8505 18.6183 12.1685 18.75 12.5 18.75L13.75 18.75L13.75 20C13.75 20.3315 13.8817 20.6495 14.1161 20.8839C14.3505 21.1183 14.6685 21.25 15 21.25C15.3315 21.25 15.6495 21.1183 15.8839 20.8839C16.1183 20.6495 16.25 20.3315 16.25 20L16.25 18.75L17.5 18.75C17.8315 18.75 18.1495 18.6183 18.3839 18.3839C18.6183 18.1495 18.75 17.8315 18.75 17.5C18.75 17.1685 18.6183 16.8505 18.3839 16.6161C18.1495 16.3817 17.8315 16.25 17.5 16.25Z"
        fill="#FFFFFF" fill-opacity="0.380000" fill-rule="nonzero"></path>
      <path id="Vector"
        d="M24.375 8.8125L15.625 8.8125L12.3375 4.83746C12.2212 4.69409 12.0745 4.57825 11.9081 4.49829C11.7417 4.41833 11.5596 4.37622 11.375 4.375L5.625 4.375C4.80829 4.36499 4.02081 4.67896 3.43512 5.24829C2.84943 5.81757 2.51318 6.59583 2.5 7.41248L2.5 22.5875C2.51318 23.4042 2.84943 24.1824 3.43512 24.7517C4.02081 25.321 4.80829 25.635 5.625 25.625L24.375 25.625C25.1917 25.635 25.9792 25.321 26.5649 24.7517C27.1506 24.1824 27.4868 23.4042 27.5 22.5875L27.5 11.85C27.4868 11.0333 27.1506 10.2551 26.5649 9.68579C25.9792 9.11646 25.1917 8.80249 24.375 8.8125ZM25 22.5625C24.9953 22.6392 24.9753 22.7142 24.9411 22.783C24.9069 22.8518 24.8593 22.9131 24.801 22.9632C24.7427 23.0133 24.675 23.0513 24.6019 23.0747C24.5287 23.0982 24.4515 23.1068 24.375 23.1L5.625 23.1C5.54846 23.1068 5.47131 23.0982 5.39813 23.0747C5.32495 23.0513 5.25726 23.0133 5.19897 22.9632C5.14075 22.9131 5.09308 22.8518 5.0589 22.783C5.02472 22.7142 5.0047 22.6392 5 22.5625L5 7.41248C5.0047 7.33582 5.02472 7.2608 5.0589 7.19196C5.09308 7.12317 5.14075 7.06189 5.19897 7.01178C5.25726 6.96167 5.32495 6.92371 5.39813 6.90027C5.47131 6.87677 5.54846 6.86816 5.625 6.875L10.7875 6.875L14.0375 10.85C14.1538 10.9934 14.3005 11.1093 14.4669 11.1892C14.6333 11.2692 14.8154 11.3113 15 11.3125L24.375 11.3125C24.4515 11.3057 24.5287 11.3143 24.6019 11.3378C24.675 11.3612 24.7427 11.3992 24.801 11.4493C24.8593 11.4994 24.9069 11.5607 24.9411 11.6295C24.9753 11.6983 24.9953 11.7733 25 11.85L25 22.5625Z"
        fill="#FFFFFF" fill-opacity="0.380000" fill-rule="nonzero"></path>
    </g>
  </symbol>
  <symbol xmlns="http://www.w3.org/2000/svg" xmlns:xlink="http://www.w3.org/1999/xlink" viewBox="0 0 28 28" id="heart">
    <desc>Created with Pixso.</desc>
    <defs>
      <clipPath id="clip50_161">
        <rect id="flat-color-icons:like" width="28.000000" height="28.000000" fill-opacity="0"></rect>
      </clipPath>
    </defs>
    <rect id="flat-color-icons:like" width="28.000000" height="28.000000" fill-opacity="0"></rect>
    <g clip-path="url(#clip50_161)">
      <path id="Vector"
        d="M19.8333 5.25C17.3833 5.25 15.225 6.47498 13.9999 8.40002C12.775 6.47498 10.6166 5.25 8.16663 5.25C4.31665 5.25 1.16663 8.40002 1.16663 12.25C1.16663 19.1917 13.9999 26.25 13.9999 26.25C13.9999 26.25 26.8333 19.25 26.8333 12.25C26.8333 8.40002 23.6833 5.25 19.8333 5.25Z"
        fill-opacity="0.380000" fill-rule="nonzero"></path>
    </g>
  </symbol>
  <symbol fill="none" xmlns="http://www.w3.org/2000/svg" xmlns:xlink="http://www.w3.org/1999/xlink"
    viewBox="0 0 65 63.8234" id="invision">
    <desc>Created with Pixso.</desc>
    <defs>
      <clipPath id="clip38_6">
        <rect id="logos:invision-icon" width="65.000000" height="63.823364" fill="white" fill-opacity="0"></rect>
      </clipPath>
    </defs>
    <g opacity="0.780000">
      <rect id="logos:invision-icon" width="65.000000" height="63.823364" fill="#FFFFFF" fill-opacity="0"></rect>
      <g clip-path="url(#clip38_6)">
        <path id="Vector"
          d="M4 0L61 0C63.2091 0 65 1.79089 65 4L65 59.8234C65 62.0325 63.2092 63.8234 61 63.8234L4 63.8234C1.79083 63.8234 0 62.0325 0 59.8234L0 4C0 1.79089 1.79083 0 4 0Z"
          fill="#FF0066" fill-opacity="1.000000" fill-rule="nonzero"></path>
        <path id="Vector"
          d="M22.1179 20.5382C24.1737 20.5088 25.819 18.8535 25.7993 16.8346C25.7792 14.8154 24.1016 13.192 22.0452 13.2017C19.9888 13.2114 18.3273 14.8506 18.327 16.8698C18.3287 17.3556 18.4283 17.8363 18.6201 18.2842C18.8118 18.7321 19.092 19.1382 19.4444 19.4792C19.7968 19.8202 20.2145 20.0894 20.6733 20.2712C21.1321 20.453 21.6231 20.5438 22.1179 20.5385L22.1179 20.5382Z"
          fill="#FFFFFF" fill-opacity="1.000000" fill-rule="nonzero"></path>
        <path id="Vector"
          d="M14.2581 40.178C14.0428 41.0813 13.9305 42.0052 13.9229 42.9329C13.9229 46.1622 15.7063 48.3065 19.4971 48.3065C22.6405 48.3065 25.191 46.4736 27.0242 43.5123L25.9034 47.9288L32.1434 47.9288L35.7134 33.8877C36.6051 30.3287 38.3314 28.4832 40.9522 28.4832C43.0139 28.4832 44.2959 29.7417 44.2959 31.8224C44.3061 32.4893 44.2121 33.1539 44.0176 33.7932L42.1793 40.2496C41.9164 41.1388 41.7852 42.0604 41.7896 42.9862C41.7896 46.0498 43.6279 48.2965 47.473 48.2965C50.7621 48.2965 53.3829 46.2183 54.8312 41.2375L52.3793 40.3057C51.1522 43.6449 50.0941 44.2473 49.2593 44.2473C48.4247 44.2473 47.9747 43.7013 47.9747 42.6058C47.9988 42.0311 48.0923 41.4612 48.2531 40.908L50.0392 34.6155C50.4403 33.3217 50.6471 31.9773 50.653 30.625C50.653 25.9172 47.7538 23.4615 44.2413 23.4615C40.9522 23.4615 37.6088 26.3743 35.9368 29.4406L37.1614 23.9363L27.6323 23.9363L26.2935 28.7869L30.7551 28.7869L28.0096 39.5704C25.8514 44.2782 21.8892 44.3547 21.3926 44.245C20.576 44.0635 20.056 43.7599 20.056 42.713C20.0798 41.8656 20.2109 41.0244 20.446 40.2087L24.6268 23.9235L14.0397 23.9235L12.7034 28.774L17.1051 28.774L14.2581 40.178Z"
          fill="#FFFFFF" fill-opacity="1.000000" fill-rule="nonzero"></path>
      </g>
    </g>
  </symbol>
  <symbol fill="none" xmlns="http://www.w3.org/2000/svg" xmlns:xlink="http://www.w3.org/1999/xlink"
    viewBox="0 0 51.8902 52.1621" id="nation">
    <desc>Created with Pixso.</desc>
    <defs></defs>
    <path id="vector"
      d="M3.39226 2.19275L35.2951 0.0146484C36.6857 -0.0803223 38.0679 0.289307 39.2102 1.06165L50.4192 8.64001C51.3411 9.26331 51.8902 10.2822 51.8902 11.3696L51.8902 46.6475C51.8902 48.4049 50.4774 49.8601 48.6626 49.9718L13.254 52.1514C11.4433 52.2628 9.69307 51.5 8.5809 50.1145L1.70218 41.5452C0.598846 40.1707 0 38.4805 0 36.7408L0 5.71106C0 3.8595 1.48129 2.32324 3.39226 2.19275ZM5.29912 5.14221C4.7417 5.18213 4.53053 5.86658 4.97424 6.19507L9.41934 9.48608C10.1892 10.056 11.1449 10.3405 12.1131 10.2878L44.106 8.54785C44.3909 8.53235 44.4988 8.1803 44.2687 8.01733L38.2072 3.72278C37.4287 3.17126 36.4722 2.90625 35.5097 2.97522L5.29912 5.14221ZM12.5258 13.7861C11.4521 13.8446 10.6125 14.7031 10.6125 15.7424L10.6125 46.1641C10.6125 47.2915 11.5945 48.1864 12.7591 48.1201L46.3705 46.2076C47.4421 46.1467 48.2788 45.2891 48.2788 44.2516L48.2788 13.7047C48.2788 12.6918 47.3979 11.887 46.3514 11.944L12.5258 13.7861ZM16.4415 20.8323L16.4415 21.2385L19.1659 21.3916L19.1659 41.3536L18.1191 41.4636C17.0855 41.5721 16.3363 42.4666 16.4415 43.4662L24.3993 43.1121C25.3702 43.0688 26.1728 42.3657 26.3124 41.436L26.357 41.1393L23.1574 40.527L23.1574 25.5554L33.5525 41.2416C34.5701 42.7771 36.549 43.4314 38.3265 42.8202L40.4542 42.0884L40.4542 19.677L42.1495 19.3903C42.6346 19.3082 42.9885 18.9011 42.9885 18.4252L42.9885 17.4114L35.9435 17.7722C34.8669 17.8274 34.0233 18.6871 34.0233 19.729L34.0233 19.922L36.7794 20.2893L36.7794 34.1281L26.0719 18.3605L18.3292 18.8774C17.2663 18.9484 16.4415 19.8025 16.4415 20.8323Z"
      fill="#000000" fill-opacity="1.000000" fill-rule="evenodd"></path>
  </symbol>
  <symbol fill="none" xmlns="http://www.w3.org/2000/svg" viewBox="0 0 64 64" id="phpstorm">
    <g clip-path="url(#clip0_50_181)">
      <path d="M36.2057 13.8971L33.1886 4.75429L10.88 0L0 12.3429L34.0114 29.7143L36.2057 13.8971Z"
        fill="url(#paint0_linear_50_181)"></path>
      <path d="M25.6 37.8514L24.96 18.8343L0 12.3429L6.12571 49.0057L25.6 48.8229V37.8514Z"
        fill="url(#paint1_linear_50_181)"></path>
      <path
        d="M20.2057 37.4858L21.3943 22.4001L39.4971 3.84005L55.68 6.76577L64 27.5201L55.3143 36.1143L41.1428 33.8286L32.3657 43.0629L20.2057 37.4858Z"
        fill="url(#paint2_linear_50_181)"></path>
      <path d="M39.4972 3.84005L13.5315 26.8801L18.5601 56.5029L40.1372 64.0001L64.0001 49.7372L39.4972 3.84005Z"
        fill="url(#paint3_linear_50_181)"></path>
      <path d="M12.2513 12.2514H51.7485V51.7485H12.2513V12.2514Z" fill="black"></path>
      <path d="M16 44.3429H30.8114V46.8114H16V44.3429Z" fill="white"></path>
      <path
        d="M15.817 17.3714H22.4913C26.4227 17.3714 28.7999 19.6571 28.7999 23.04V23.1314C28.7999 26.9714 25.8742 28.8914 22.1256 28.8914H19.3827V33.8286H15.817V17.3714ZM22.3084 25.6C24.137 25.6 25.1427 24.5029 25.1427 23.1314V23.04C25.1427 21.3943 24.0456 20.5714 22.217 20.5714H19.4742V25.6H22.3084Z"
        fill="white"></path>
      <path
        d="M29.7142 31.4514L31.8171 28.8914C33.2799 30.0799 34.8342 30.9028 36.7542 30.9028C38.2171 30.9028 39.1314 30.3542 39.1314 29.3485V29.2571C39.1314 28.3428 38.5828 27.8856 35.8399 27.1542C32.5485 26.3314 30.3542 25.4171 30.3542 22.1256V22.0342C30.3542 19.0171 32.7314 17.0971 36.1142 17.0971C38.4914 17.0971 40.5942 17.8285 42.2399 19.1999L40.3199 21.9428C38.8571 20.9371 37.3942 20.2971 36.0228 20.2971C34.6514 20.2971 33.9199 20.9371 33.9199 21.7599V21.8514C33.9199 22.9485 34.6514 23.3142 37.4857 24.0456C40.7771 24.9599 42.6971 26.1485 42.6971 28.9828V29.0742C42.6971 32.3656 40.2285 34.1942 36.6628 34.1942C34.1942 34.1028 31.7257 33.1885 29.7142 31.4514Z"
        fill="white"></path>
    </g>
    <defs>
      <linearGradient id="paint0_linear_50_181" x1="0.510171" y1="42.8306" x2="27.3801" y2="7.33806"
        gradientUnits="userSpaceOnUse">
        <stop offset="0.016" stop-color="#765AF8"></stop>
        <stop offset="0.382" stop-color="#B345F1"></stop>
        <stop offset="0.758" stop-color="#FA3293"></stop>
        <stop offset="0.941" stop-color="#FF318C"></stop>
      </linearGradient>
      <linearGradient id="paint1_linear_50_181" x1="2.496" y1="44.2322" x2="29.323" y2="8.79634"
        gradientUnits="userSpaceOnUse">
        <stop offset="0.016" stop-color="#765AF8"></stop>
        <stop offset="0.382" stop-color="#B345F1"></stop>
        <stop offset="0.758" stop-color="#FA3293"></stop>
        <stop offset="0.941" stop-color="#FF318C"></stop>
      </linearGradient>
      <linearGradient id="paint2_linear_50_181" x1="46.4978" y1="42.4275" x2="31.3362" y2="6.44394"
        gradientUnits="userSpaceOnUse">
        <stop offset="0.183" stop-color="#765AF8"></stop>
        <stop offset="0.238" stop-color="#8655F6"></stop>
        <stop offset="0.345" stop-color="#9F4CF3"></stop>
        <stop offset="0.443" stop-color="#AE47F2"></stop>
        <stop offset="0.522" stop-color="#B345F1"></stop>
      </linearGradient>
      <linearGradient id="paint3_linear_50_181" x1="57.8433" y1="52.4243" x2="22.5811" y2="25.1575"
        gradientUnits="userSpaceOnUse">
        <stop offset="0.016" stop-color="#765AF8"></stop>
        <stop offset="0.382" stop-color="#B345F1"></stop>
      </linearGradient>
      <clipPath id="clip0_50_181">
        <rect width="64" height="64" fill="white"></rect>
      </clipPath>
    </defs>
  </symbol>
  <symbol fill="none" xmlns="http://www.w3.org/2000/svg" viewBox="0 0 64 64" id="procreate">
    <g opacity="0.78">
      <path
        d="M4 24.2667C4 17.1727 4 13.6257 5.38058 10.9161C6.59498 8.53273 8.53273 6.59498 10.9161 5.38058C13.6257 4 17.1727 4 24.2667 4H39.7333C46.8273 4 50.3743 4 53.0839 5.38058C55.4673 6.59498 57.405 8.53273 58.6194 10.9161C60 13.6257 60 17.1727 60 24.2667V39.7333C60 46.8273 60 50.3743 58.6194 53.0839C57.405 55.4673 55.4673 57.405 53.0839 58.6194C50.3743 60 46.8273 60 39.7333 60H24.2667C17.1727 60 13.6257 60 10.9161 58.6194C8.53273 57.405 6.59498 55.4673 5.38058 53.0839C4 50.3743 4 46.8273 4 39.7333V24.2667Z"
        fill="#1E252B"></path>
      <path
        d="M19.7334 32.8C11.9334 38.5408 10.4 46.9334 10.4 53.9334C10.7556 51.8445 12.3867 46.9467 16.0667 44.0667C21.5334 39.7884 31.5333 41.1978 42.4667 33.9334C53.4001 26.6689 54.4667 17.2 53.0667 9.93335C52.094 16.9451 48.7744 20.001 44.2 22.7334C34.2668 28.6667 28.0668 26.6667 19.7334 32.8Z"
        fill="url(#paint0_linear_50_198)"></path>
      <path
        d="M19.7334 32.8C11.9334 38.5408 10.4 46.9334 10.4 53.9334C10.7556 51.8445 12.3867 46.9467 16.0667 44.0667C21.5334 39.7884 31.5333 41.1978 42.4667 33.9334C53.4001 26.6689 54.4667 17.2 53.0667 9.93335C52.094 16.9451 48.7744 20.001 44.2 22.7334C34.2668 28.6667 28.0668 26.6667 19.7334 32.8Z"
        fill="url(#paint1_linear_50_198)"></path>
      <path
        d="M10.4933 51.0639C10.9213 44.739 12.975 37.774 19.7333 32.8C24.0777 29.6025 27.8422 28.6155 31.8582 27.5626C34.2018 26.9482 36.6311 26.3113 39.3112 25.1995C38.3334 26.1333 33.6871 28.3133 30.1825 29.7699C26.6871 31.2227 23.0018 32.7543 19.9334 34.8C13.777 38.9042 11.2737 46.045 10.4933 51.0639Z"
        fill="url(#paint2_linear_50_198)"></path>
      <path
        d="M10.4933 51.0639C10.9213 44.739 12.975 37.774 19.7333 32.8C24.0777 29.6025 27.8422 28.6155 31.8582 27.5626C34.2018 26.9482 36.6311 26.3113 39.3112 25.1995C38.3334 26.1333 33.6871 28.3133 30.1825 29.7699C26.6871 31.2227 23.0018 32.7543 19.9334 34.8C13.777 38.9042 11.2737 46.045 10.4933 51.0639Z"
        fill="url(#paint3_linear_50_198)"></path>
      <path
        d="M48.4355 28.7418C47.6689 29.4927 46.8141 30.1649 45.8668 30.7333C41.6001 33.2934 37.065 34.1189 32.6522 34.9223C29.1357 35.5624 25.6969 36.1884 22.5334 37.6667C15.4006 40.9998 11.0007 47.9324 10.4002 53.9322C10.4002 53.9324 10.4001 53.9327 10.4001 53.9329C10.4001 53.9318 10.4 53.9308 10.4 53.9297C10.4001 53.4717 10.4067 53.0078 10.4212 52.539C10.4575 51.7953 10.5344 50.9713 10.6616 50.0926C11.6033 45.1584 14.1644 38.646 19.9334 34.8C22.3756 33.1719 25.2084 31.8693 28.0254 30.673C30.5027 29.8597 32.7354 29.3535 34.8626 28.8712C38.2111 28.1121 41.2983 27.4122 44.6668 25.6667C51.7349 22.0041 53.5868 14.4776 53.089 10.0503C54.1458 15.6601 53.7186 22.5598 48.4355 28.7418Z"
        fill="url(#paint4_linear_50_198)"></path>
      <path
        d="M48.4353 28.7419C47.6687 29.4928 46.814 30.165 45.8667 30.7334C41.6 33.2934 37.0649 34.119 32.6521 34.9223C29.1357 35.5624 25.6968 36.1884 22.5334 37.6667C18.4313 39.5836 15.2331 42.691 13.1416 46.1268C14.987 43.5337 17.7983 40.637 21.2667 39.5334C24.6512 38.4565 27.8795 38.3452 31.2333 38.2296C32.1946 38.1965 33.1662 38.163 34.1547 38.1063C36.8189 37.1365 39.6109 35.8308 42.4666 33.9334C44.9281 32.2979 46.8895 30.5506 48.4353 28.7419Z"
        fill="url(#paint5_linear_50_198)"></path>
      <path
        d="M48.4353 28.7419C47.6687 29.4928 46.814 30.165 45.8667 30.7334C41.6 33.2934 37.0649 34.119 32.6521 34.9223C29.1357 35.5624 25.6968 36.1884 22.5334 37.6667C18.4313 39.5836 15.2331 42.691 13.1416 46.1268C14.987 43.5337 17.7983 40.637 21.2667 39.5334C24.6512 38.4565 27.8795 38.3452 31.2333 38.2296C32.1946 38.1965 33.1662 38.163 34.1547 38.1063C36.8189 37.1365 39.6109 35.8308 42.4666 33.9334C44.9281 32.2979 46.8895 30.5506 48.4353 28.7419Z"
        fill="url(#paint6_linear_50_198)"></path>
      <path
        d="M53.0889 10.0503C53.0816 10.0112 53.0741 9.97227 53.0666 9.93335C52.0939 16.9451 48.7744 20.001 44.2 22.7334C42.4671 23.7684 40.8479 24.5621 39.3111 25.1996C38.3331 26.1335 33.687 28.3134 30.1825 29.7699L30.1819 29.7701C29.4687 30.0666 28.7476 30.3663 28.0254 30.673C30.5027 29.8597 32.7353 29.3535 34.8625 28.8712C38.2111 28.1121 41.2982 27.4122 44.6667 25.6667C51.7349 22.0041 53.5867 14.4776 53.0889 10.0503Z"
        fill="url(#paint7_linear_50_198)"></path>
      <path
        d="M53.0889 10.0503C53.0816 10.0112 53.0741 9.97227 53.0666 9.93335C52.0939 16.9451 48.7744 20.001 44.2 22.7334C42.4671 23.7684 40.8479 24.5621 39.3111 25.1996C38.3331 26.1335 33.687 28.3134 30.1825 29.7699L30.1819 29.7701C29.4687 30.0666 28.7476 30.3663 28.0254 30.673C30.5027 29.8597 32.7353 29.3535 34.8625 28.8712C38.2111 28.1121 41.2982 27.4122 44.6667 25.6667C51.7349 22.0041 53.5867 14.4776 53.0889 10.0503Z"
        fill="url(#paint8_linear_50_198)"></path>
    </g>
    <defs>
      <linearGradient id="paint0_linear_50_198" x1="34.8" y1="36.4" x2="11.7334" y2="52.9333"
        gradientUnits="userSpaceOnUse">
        <stop stop-color="#FE5004"></stop>
        <stop offset="0.602538" stop-color="#FFB915"></stop>
        <stop offset="1" stop-color="#FFFC41"></stop>
      </linearGradient>
      <linearGradient id="paint1_linear_50_198" x1="25.6667" y1="37.8" x2="25.8" y2="40.2"
        gradientUnits="userSpaceOnUse">
        <stop stop-color="#FD3E00"></stop>
        <stop offset="1" stop-color="#FD4400" stop-opacity="0"></stop>
      </linearGradient>
      <linearGradient id="paint2_linear_50_198" x1="39.3333" y1="24" x2="6.79999" y2="52.9333"
        gradientUnits="userSpaceOnUse">
        <stop stop-color="#005FC6"></stop>
        <stop offset="0.279756" stop-color="#23A4DF"></stop>
        <stop offset="0.465158" stop-color="#3AC2B7"></stop>
        <stop offset="0.640642" stop-color="#60EC7A"></stop>
        <stop offset="0.818668" stop-color="#CFFDBD"></stop>
        <stop offset="1" stop-color="#D0FCB6"></stop>
      </linearGradient>
      <linearGradient id="paint3_linear_50_198" x1="32.7333" y1="29.5333" x2="29.9333" y2="27"
        gradientUnits="userSpaceOnUse">
        <stop stop-color="#0061CB"></stop>
        <stop offset="1" stop-color="#067EEA" stop-opacity="0"></stop>
      </linearGradient>
      <linearGradient id="paint4_linear_50_198" x1="53.2" y1="10" x2="10.4" y2="53.8667" gradientUnits="userSpaceOnUse">
        <stop stop-color="#8E55F1"></stop>
        <stop offset="0.140795" stop-color="#8B48DF"></stop>
        <stop offset="0.274905" stop-color="#E04DD9"></stop>
        <stop offset="0.492309" stop-color="#F496C8"></stop>
        <stop offset="0.633104" stop-color="#FAD2BA"></stop>
        <stop offset="0.856964" stop-color="#FEF7E5"></stop>
        <stop offset="1" stop-color="#FFF5BF"></stop>
      </linearGradient>
      <linearGradient id="paint5_linear_50_198" x1="48.9999" y1="28.3334" x2="14.0666" y2="44.1334"
        gradientUnits="userSpaceOnUse">
        <stop stop-color="#F41A73"></stop>
        <stop offset="0.399909" stop-color="#FC50A3"></stop>
        <stop offset="0.584511" stop-color="#FE9485"></stop>
        <stop offset="0.703104" stop-color="#FFAF88"></stop>
        <stop offset="1" stop-color="#FFC385"></stop>
      </linearGradient>
      <linearGradient id="paint6_linear_50_198" x1="36.3999" y1="33.2" x2="36.4666" y2="36.4"
        gradientUnits="userSpaceOnUse">
        <stop stop-color="#9B0008"></stop>
        <stop offset="1" stop-color="#EA115A" stop-opacity="0"></stop>
      </linearGradient>
      <linearGradient id="paint7_linear_50_198" x1="53.2" y1="13.6" x2="21.6666" y2="34.2"
        gradientUnits="userSpaceOnUse">
        <stop stop-color="#231283"></stop>
        <stop offset="0.362865" stop-color="#7053C6"></stop>
        <stop offset="0.466353" stop-color="#7272DB"></stop>
        <stop offset="0.634311" stop-color="#399EE9"></stop>
        <stop offset="1" stop-color="#00CFFF"></stop>
      </linearGradient>
      <linearGradient id="paint8_linear_50_198" x1="45.3333" y1="24" x2="46.7333" y2="25.8"
        gradientUnits="userSpaceOnUse">
        <stop stop-color="#3F259D" stop-opacity="0"></stop>
        <stop offset="1" stop-color="#412DAA"></stop>
      </linearGradient>
    </defs>
  </symbol>
  <symbol fill="none" xmlns="http://www.w3.org/2000/svg" xmlns:xlink="http://www.w3.org/1999/xlink"
    viewBox="0 0 64 56.95" id="sketch">
    <desc>Created with Pixso.</desc>
    <defs>
      <clipPath id="clip26_111">
        <rect id="logos:sketch" width="64.000000" height="56.949951" fill="white" fill-opacity="0"></rect>
      </clipPath>
    </defs>
    <rect id="logos:sketch" width="64.000000" height="56.949951" fill="#FFFFFF" fill-opacity="0"></rect>
    <g clip-path="url(#clip26_111)">
      <path id="Vector" d="M32 0L13.9637 1.87244L0 20.2781L32 56.8669L64 20.2778L50.0365 1.87244L32 0Z" fill="#FDB300"
        fill-opacity="1.000000" fill-rule="nonzero"></path>
      <path id="Vector" d="M0 20.2782L32 56.8671L12.9615 20.2782L0 20.2782Z" fill="#EB6C00" fill-opacity="1.000000"
        fill-rule="nonzero"></path>
      <path id="Vector" d="M51.0383 20.2782L32 56.8671L64 20.2782L51.0383 20.2782Z" fill="#EB6C00"
        fill-opacity="1.000000" fill-rule="nonzero"></path>
      <path id="Vector" d="M12.9617 20.2782L32.0002 56.8671L51.0387 20.2782L12.9617 20.2782Z" fill="#FDAD00"
        fill-opacity="1.000000" fill-rule="nonzero"></path>
      <path id="Vector" d="M13.9636 1.87244L12.9611 20.2781L31.9998 0L13.9636 1.87244Z" fill="#FDD231"
        fill-opacity="1.000000" fill-rule="nonzero"></path>
      <path id="Vector" d="M51.0383 20.2781L50.0363 1.87244L32 0L51.0383 20.2781Z" fill="#FDD231"
        fill-opacity="1.000000" fill-rule="nonzero"></path>
      <path id="Vector" d="M51.0383 20.2781L63.9998 20.2781L50.0363 1.87244L51.0383 20.2781Z" fill="#FDAD00"
        fill-opacity="1.000000" fill-rule="nonzero"></path>
      <path id="Vector" d="M0 20.2781L12.9615 20.2781L13.9637 1.87244L0 20.2781Z" fill="#FDAD00" fill-opacity="1.000000"
        fill-rule="nonzero"></path>
      <path id="Vector" d="M32.0002 0L12.9617 20.2778L51.0387 20.2778L32.0002 0Z" fill="#FEEEB7" fill-opacity="1.000000"
        fill-rule="nonzero"></path>
    </g>
  </symbol>
  <symbol fill="none" xmlns="http://www.w3.org/2000/svg" xmlns:xlink="http://www.w3.org/1999/xlink"
    viewBox="0 0 65 63.8231" id="slack">
    <desc>Created with Pixso.</desc>
    <defs>
      <clipPath id="clip32_0">
        <rect id="grommet-icons:slack" width="65.000000" height="63.823120" fill="white" fill-opacity="0"></rect>
      </clipPath>
    </defs>
    <g opacity="0.780000">
      <rect id="grommet-icons:slack" width="65.000000" height="63.823120" fill="#FFFFFF" fill-opacity="0"></rect>
      <g clip-path="url(#clip32_0)">
        <path id="Vector"
          d="M13.6717 40.2191C13.6724 41.0975 13.4967 41.9674 13.1546 42.7791C12.8125 43.5906 12.3108 44.328 11.6781 44.949C11.0454 45.5699 10.2942 46.0624 9.46751 46.3979C8.64081 46.7335 7.75481 46.9056 6.86024 46.9047C5.96613 46.905 5.08072 46.7323 4.25464 46.3964C3.42856 46.0605 2.67799 45.568 2.0459 44.9471C1.41379 44.3262 0.912521 43.5891 0.57077 42.7778C0.229034 41.9666 0.0534821 41.097 0.0541992 40.2191C0.0534821 39.3411 0.229111 38.4713 0.57103 37.6599C0.912949 36.8485 1.41446 36.1112 2.04684 35.4902C2.67924 34.8693 3.43011 34.377 4.25652 34.0411C5.08292 33.7054 5.96861 33.533 6.86295 33.5337L13.6744 33.5337L13.6744 40.2191L13.6717 40.2191ZM17.0761 40.2191C17.0754 39.3411 17.251 38.4713 17.5929 37.6599C17.9348 36.8485 18.4363 36.1112 19.0687 35.4902C19.7011 34.8693 20.452 34.377 21.2784 34.0411C22.1048 33.7054 22.9905 33.533 23.8848 33.5337C24.7792 33.533 25.6649 33.7054 26.4913 34.0411C27.3177 34.377 28.0685 34.8693 28.7009 35.4902C29.3333 36.1112 29.8348 36.8485 30.1767 37.6599C30.5187 38.4713 30.6943 39.3411 30.6936 40.2191L30.6936 56.9355C30.6943 57.8136 30.5187 58.6833 30.1767 59.4948C29.8348 60.3062 29.3333 61.0435 28.7009 61.6644C28.0685 62.2854 27.3177 62.7777 26.4913 63.1135C25.6649 63.4492 24.7792 63.6217 23.8848 63.621C22.9905 63.6217 22.1048 63.4492 21.2784 63.1135C20.452 62.7777 19.7011 62.2854 19.0687 61.6644C18.4363 61.0435 17.9348 60.3062 17.5929 59.4948C17.251 58.6833 17.0754 57.8136 17.0761 56.9355L17.0761 40.2191Z"
          fill="#E01E5A" fill-opacity="1.000000" fill-rule="evenodd"></path>
        <path id="Vector"
          d="M23.8848 13.3737C22.9902 13.3743 22.1043 13.2018 21.2777 12.8658C20.4512 12.53 19.7002 12.0374 19.0677 11.4161C18.4353 10.7949 17.9339 10.0573 17.5921 9.24548C17.2503 8.43384 17.075 7.56384 17.076 6.68542C17.0753 5.80737 17.251 4.93762 17.5929 4.12622C17.9348 3.31482 18.4363 2.57751 19.0687 1.95654C19.7011 1.33557 20.452 0.843262 21.2784 0.507446C22.1048 0.171753 22.9904 -0.000732422 23.8848 0C24.7791 -0.000732422 25.6648 0.171753 26.4912 0.507446C27.3176 0.843262 28.0685 1.33557 28.7009 1.95654C29.3333 2.57751 29.8348 3.31482 30.1767 4.12622C30.5186 4.93762 30.6943 5.80737 30.6935 6.68542L30.6935 13.3762L23.8875 13.3762L23.8848 13.3737ZM23.8848 16.7668C24.7791 16.7661 25.6648 16.9386 26.4912 17.2743C27.3176 17.6101 28.0685 18.1025 28.7009 18.7234C29.3333 19.3444 29.8348 20.0817 30.1767 20.8931C30.5186 21.7045 30.6943 22.5742 30.6935 23.4524C30.6943 24.3304 30.5186 25.2002 30.1767 26.0116C29.8348 26.823 29.3333 27.5603 28.7009 28.1813C28.0685 28.8021 27.3176 29.2946 26.4912 29.6304C25.6648 29.9661 24.7791 30.1385 23.8848 30.1378L6.80875 30.1378C5.91464 30.1385 5.02916 29.9662 4.20294 29.6306C3.37672 29.295 2.62596 28.8029 1.99361 28.1821C1.36125 27.5615 0.859695 26.8246 0.517609 26.0134C0.175537 25.2023 -0.000350952 24.3329 0 23.455C-0.000717163 22.5769 0.174911 21.7072 0.51683 20.8958C0.858749 20.0844 1.36026 19.347 1.99265 18.7261C2.62505 18.1051 3.37592 17.6128 4.20232 17.277C5.02872 16.9413 5.91441 16.7688 6.80875 16.7695L23.8875 16.7695L23.8848 16.7668Z"
          fill="#36C5F0" fill-opacity="1.000000" fill-rule="evenodd"></path>
        <path id="Vector"
          d="M51.1738 23.4524C51.173 22.574 51.3488 21.7041 51.6908 20.8925C52.0329 20.0808 52.5347 19.3435 53.1674 18.7225C53.8 18.1016 54.5512 17.6091 55.3779 17.2736C56.2047 16.938 57.0906 16.7659 57.9852 16.7668C58.8795 16.7661 59.7653 16.9386 60.5916 17.2743C61.418 17.6101 62.1689 18.1025 62.8013 18.7234C63.4337 19.3444 63.9352 20.0817 64.2771 20.8931C64.619 21.7046 64.7947 22.5742 64.794 23.4524C64.7947 24.3304 64.619 25.2002 64.2771 26.0116C63.9352 26.823 63.4337 27.5603 62.8013 28.1813C62.1689 28.8022 61.418 29.2946 60.5916 29.6304C59.7653 29.9661 58.8795 30.1385 57.9852 30.1378L51.1738 30.1378L51.1738 23.455L51.1738 23.4524ZM47.7694 23.4524C47.7701 24.3304 47.5945 25.2002 47.2525 26.0116C46.9106 26.823 46.4091 27.5603 45.7767 28.1813C45.1443 28.8022 44.3935 29.2946 43.5671 29.6304C42.7407 29.9661 41.855 30.1385 40.9606 30.1378C40.0661 30.1389 39.1801 29.9667 38.3534 29.6311C37.5267 29.2955 36.7755 28.8032 36.1428 28.1821C35.5101 27.5612 35.0083 26.8239 34.6663 26.0122C34.3242 25.2006 34.1485 24.3307 34.1492 23.4524L34.1492 6.68542C34.1485 5.80713 34.3242 4.93726 34.6663 4.12561C35.0083 3.31396 35.5101 2.57666 36.1428 1.95569C36.7755 1.33459 37.5267 0.842285 38.3534 0.506714C39.1801 0.171143 40.0661 -0.00109863 40.9606 0C41.855 -0.000732422 42.7407 0.171753 43.5671 0.507446C44.3935 0.843262 45.1443 1.33557 45.7767 1.95654C46.4091 2.57751 46.9106 3.31482 47.2525 4.12622C47.5945 4.93762 47.7701 5.80737 47.7694 6.68542L47.7694 23.455L47.7694 23.4524Z"
          fill="#2EB67D" fill-opacity="1.000000" fill-rule="evenodd"></path>
        <path id="Vector"
          d="M40.9606 50.2473C41.8549 50.2467 42.7407 50.4191 43.567 50.7549C44.3934 51.0906 45.1443 51.583 45.7767 52.204C46.4091 52.8248 46.9106 53.5621 47.2525 54.3735C47.5945 55.1851 47.7701 56.0547 47.7694 56.9329C47.7704 57.8112 47.5951 58.6812 47.2533 59.4929C46.9115 60.3047 46.4101 61.0422 45.7777 61.6635C45.1452 62.2847 44.3943 62.7773 43.5677 63.1133C42.7411 63.4491 41.8552 63.6217 40.9606 63.621C40.066 63.6217 39.1801 63.4491 38.3535 63.1133C37.527 62.7773 36.776 62.2847 36.1436 61.6635C35.5111 61.0422 35.0097 60.3047 34.6679 59.4929C34.3262 58.6812 34.1508 57.8112 34.1519 56.9329L34.1519 50.2473L40.9606 50.2473ZM40.9606 46.9047C40.0663 46.9054 39.1806 46.7329 38.3542 46.3972C37.5278 46.0614 36.7769 45.569 36.1445 44.9481C35.5121 44.3271 35.0106 43.5898 34.6687 42.7784C34.3268 41.9669 34.1512 41.0973 34.1519 40.2191C34.1512 39.3411 34.3268 38.4713 34.6687 37.6599C35.0106 36.8485 35.5121 36.1112 36.1445 35.4902C36.7769 34.8693 37.5278 34.377 38.3542 34.0411C39.1806 33.7054 40.0663 33.533 40.9606 33.5337L58.0367 33.5337C58.931 33.533 59.8167 33.7054 60.6431 34.0411C61.4695 34.377 62.2204 34.8693 62.8528 35.4902C63.4851 36.1112 63.9866 36.8485 64.3286 37.6599C64.6705 38.4713 64.8461 39.3411 64.8454 40.2191C64.8461 41.0973 64.6705 41.9669 64.3286 42.7784C63.9866 43.5898 63.4851 44.3271 62.8528 44.9481C62.2204 45.569 61.4695 46.0614 60.6431 46.3972C59.8167 46.7329 58.931 46.9054 58.0367 46.9047L40.9606 46.9047Z"
          fill="#ECB22E" fill-opacity="1.000000" fill-rule="evenodd"></path>
      </g>
    </g>
  </symbol>
  <symbol fill="none" xmlns="http://www.w3.org/2000/svg" viewBox="0 0 64 64" id="toolbox">
    <g opacity="0.78" clip-path="url(#clip0_50_210)">
      <path d="M32 64.152L60 48.13V16.114L32 32.134V64.152Z" fill="#000001"></path>
      <path d="M38 49.1112V54L50 46.8888V42L38 49.1112Z" fill="white"></path>
      <path d="M32 0.151978L4 16.114V48.13L32 64.152V32.134L60 16.114L32 0.151978Z" fill="url(#paint0_linear_50_210)">
      </path>
    </g>
    <defs>
      <linearGradient id="paint0_linear_50_210" x1="4.36" y1="46.51" x2="60.082" y2="17.564"
        gradientUnits="userSpaceOnUse">
        <stop offset="0.043" stop-color="#FF8618"></stop>
        <stop offset="0.382" stop-color="#FF246E"></stop>
        <stop offset="0.989" stop-color="#AF1DF5"></stop>
      </linearGradient>
      <clipPath id="clip0_50_210">
        <rect width="64" height="64" fill="white"></rect>
      </clipPath>
    </defs>
  </symbol>
  <symbol fill="none" xmlns="http://www.w3.org/2000/svg" xmlns:xlink="http://www.w3.org/1999/xlink"
    viewBox="0 0 65 62.8414" id="visual-studio-code">
    <desc>Created with Pixso.</desc>
    <defs>
      <clipPath id="clip26_121">
        <rect id="logos:visual-studio-code" width="65.000000" height="62.841431" fill="white" fill-opacity="0"></rect>
      </clipPath>
      <linearGradient id="paint_linear_26_127_0" x1="32.373657" y1="0.000122" x2="32.373657" y2="62.764656"
        gradientUnits="userSpaceOnUse">
        <stop stop-color="#FFFFFF"></stop>
        <stop offset="1.000000" stop-color="#FFFFFF" stop-opacity="0.000000"></stop>
      </linearGradient>
    </defs>
    <g opacity="0.780000">
      <rect id="logos:visual-studio-code" width="65.000000" height="62.841431" fill="#FFFFFF" fill-opacity="0"></rect>
      <g clip-path="url(#clip26_121)">
        <mask id="mask26_122" maskType="alpha" maskUnits="userSpaceOnUse" x="0.000122" y="0.000732" width="64.747078"
          height="62.764404">
          <path id="Vector"
            d="M45.9135 62.4968C46.4286 62.6926 46.9797 62.783 47.5322 62.7622C48.0848 62.7416 48.6271 62.6102 49.1254 62.3766L62.4557 56.1266C63.1422 55.8044 63.7216 55.3 64.1269 54.6714C64.5323 54.0427 64.7473 53.3153 64.7472 52.5729L64.7472 10.193C64.7473 9.45056 64.5322 8.72314 64.1269 8.09448C63.7215 7.46582 63.1422 6.96155 62.4557 6.6394L49.1256 0.38916C48.3724 0.0360107 47.5251 -0.0802002 46.701 0.0563965C45.877 0.193115 45.1169 0.57605 44.5261 1.15222L19.0068 23.8383L7.89075 15.6163C7.38934 15.2455 6.77045 15.0574 6.1416 15.0846C5.5127 15.1118 4.91339 15.3528 4.44775 15.7656L0.88269 18.9257C-0.292908 19.9675 -0.294189 21.7697 0.879639 22.8132L10.5197 31.3829L0.879639 39.9524C-0.294189 40.9962 -0.292908 42.798 0.88269 43.8401L4.44775 47C4.91339 47.4128 5.51263 47.6538 6.14154 47.681C6.77045 47.7084 7.38928 47.5203 7.89075 47.1494L19.0068 38.9274L44.5261 61.6133C44.9207 61.9984 45.3931 62.2993 45.9135 62.4968ZM48.5703 17.0608L29.2069 31.3829L48.5703 45.7048L48.5703 17.0608Z"
            fill="#FFFFFF" fill-opacity="1.000000" fill-rule="nonzero"></path>
        </mask>
        <g mask="url(#mask26_122)">
          <path id="Vector"
            d="M62.4952 6.64917L49.1545 0.390259C48.4011 0.0367432 47.5535 -0.0797119 46.7291 0.0567627C45.9047 0.193359 45.1443 0.576172 44.553 1.15222L0.880127 39.9524C-0.294495 40.9962 -0.292969 42.7981 0.883118 43.8402L4.4505 47C4.91656 47.413 5.51617 47.6539 6.14545 47.6813C6.77472 47.7085 7.39392 47.5204 7.89575 47.1494L60.4879 8.27295C62.2523 6.96875 64.7865 8.19495 64.7865 10.3528L64.7865 10.2019C64.7865 9.45959 64.5715 8.73242 64.1661 8.10388C63.7608 7.47546 63.1816 6.97119 62.4952 6.64917Z"
            fill="#0065A9" fill-opacity="1.000000" fill-rule="nonzero"></path>
        </g>
        <g mask="url(#mask26_122)">
          <path id="Vector"
            d="M62.4952 56.116L49.1545 62.3749C48.4011 62.7283 47.5535 62.8447 46.7292 62.7083C45.9048 62.5717 45.1443 62.189 44.553 61.6128L0.880127 22.8127C-0.294495 21.7692 -0.292969 19.967 0.883118 18.9252L4.4505 15.765C4.91663 15.3522 5.51624 15.1112 6.14551 15.084C6.77478 15.0568 7.39398 15.2449 7.89575 15.6158L60.4879 54.4922C62.2523 55.7963 64.7865 54.5702 64.7865 52.412L64.7865 52.5632C64.7865 53.3054 64.5714 54.0327 64.1661 54.6611C63.7608 55.2897 63.1816 55.7939 62.4952 56.116Z"
            fill="#007ACC" fill-opacity="1.000000" fill-rule="nonzero"></path>
        </g>
        <g mask="url(#mask26_122)">
          <path id="Vector"
            d="M49.1127 62.3798C48.3591 62.733 47.5114 62.8494 46.687 62.7126C45.8625 62.576 45.102 62.1932 44.5106 61.6171C46.0038 63.0718 48.5574 62.0414 48.5574 59.9834L48.5574 2.78906C48.5574 0.731079 46.0038 -0.299316 44.5106 1.15564C45.102 0.579468 45.8625 0.196533 46.6869 0.0598145C47.5114 -0.0767822 48.359 0.0394287 49.1127 0.3927L62.4511 6.64294C63.1379 6.96472 63.7175 7.46899 64.1231 8.09766C64.5287 8.72632 64.744 9.45386 64.7439 10.1964L64.7439 52.5765C64.7439 54.0919 63.8527 55.4734 62.4511 56.13L49.1127 62.38L49.1127 62.3798Z"
            fill="#1F9CF0" fill-opacity="1.000000" fill-rule="nonzero"></path>
        </g>
        <g mask="url(#mask26_122)">
          <path id="Vector"
            d="M45.9135 62.4963C46.4286 62.6921 46.9797 62.7825 47.5322 62.7617C48.0848 62.7411 48.6271 62.6099 49.1254 62.3762L62.4554 56.1259C63.142 55.804 63.7214 55.2996 64.1268 54.6709C64.5322 54.0422 64.7473 53.3148 64.7472 52.5724L64.7472 10.1925C64.7473 9.45007 64.5322 8.72266 64.1269 8.09412C63.7215 7.46545 63.1422 6.96106 62.4557 6.63904L49.1251 0.38855C48.3719 0.0354004 47.5247 -0.0808105 46.7007 0.0559082C45.8767 0.192505 45.1167 0.575439 44.5259 1.15149L19.0068 23.8378L7.89075 15.616C7.38934 15.2451 6.77045 15.0569 6.1416 15.0842C5.5127 15.1115 4.91339 15.3523 4.44775 15.7651L0.88269 18.9253C-0.292908 19.967 -0.294189 21.7692 0.879639 22.8127L10.5197 31.3824L0.879639 39.9519C-0.294189 40.9957 -0.292908 42.7976 0.88269 43.8396L4.44775 46.9995C4.91339 47.4124 5.51263 47.6533 6.14154 47.6807C6.77045 47.7079 7.38928 47.5198 7.89075 47.1489L19.0068 38.9269L44.5259 61.6129C44.9205 61.998 45.3931 62.2988 45.9135 62.4963ZM48.5703 17.0601L29.2069 31.3824L48.5703 45.7043L48.5703 17.0603L48.5703 17.0601Z"
            fill="url(#paint_linear_26_127_0)" fill-opacity="0.250000" fill-rule="nonzero"></path>
        </g>
      </g>
    </g>
  </symbol>
  <symbol fill="none" xmlns="http://www.w3.org/2000/svg" viewBox="0 0 64 64" id="zeplin">
    <g opacity="0.78">
      <path fill-rule="evenodd" clip-rule="evenodd"
        d="M12.6315 40.3366L9.70191 41.3886L9.54462 49.9551L19.6858 46.3136C16.2075 45.1652 13.6674 43.1445 12.6315 40.3366Z"
        fill="#FDBD39"></path>
      <path fill-rule="evenodd" clip-rule="evenodd"
        d="M14.1646 31.2759L4 34.9259L9.70192 41.3885L12.6315 40.3366C11.5986 37.5368 12.2356 34.372 14.1646 31.2759Z"
        fill="#F69833"></path>
      <path fill-rule="evenodd" clip-rule="evenodd"
        d="M31.2698 18.9149C18.3262 23.5627 9.98148 33.1535 12.6315 40.3366L59.5047 23.5053C56.8546 16.3222 44.2135 14.267 31.2698 18.9149Z"
        fill="#FECF33"></path>
      <path fill-rule="evenodd" clip-rule="evenodd"
        d="M40.8663 44.927C53.8099 40.2791 62.1703 30.7308 59.5046 23.5052L12.6315 40.3365C15.2971 47.5622 27.9226 49.5748 40.8663 44.927Z"
        fill="#EE6723"></path>
      <path fill-rule="evenodd" clip-rule="evenodd"
        d="M59.5046 23.5052L12.6315 40.3365C13.5493 42.8244 17.0494 44.0501 21.9604 44.0501C26.7483 44.0501 32.8772 42.886 39.2668 40.5916C52.2106 35.9437 61.3173 28.4186 59.5046 23.5052Z"
        fill="#F69833"></path>
      <path fill-rule="evenodd" clip-rule="evenodd"
        d="M50.1756 19.7916C45.3877 19.7916 39.2589 20.9557 32.8692 23.2501C19.9255 27.898 10.8188 35.4231 12.6315 40.3365L59.5046 23.5052C58.5868 21.0173 55.0867 19.7916 50.1756 19.7916Z"
        fill="#FDBD39"></path>
      <path fill-rule="evenodd" clip-rule="evenodd"
        d="M47.587 50.4088H47.5867C46.2076 50.4088 44.173 49.1843 41.5394 46.7694C38.4237 43.9124 34.8547 39.7278 31.4896 34.9866C28.1247 30.2455 25.3596 25.5055 23.7039 21.6397C21.9 17.427 21.6428 14.8367 22.9394 13.9408C23.2237 13.7446 23.5665 13.6452 23.958 13.6452C25.0127 13.6452 27.0679 14.4171 30.8682 18.0945L30.9513 18.1749L30.94 18.2892C30.9141 18.5534 30.8901 18.8199 30.8688 19.0816L30.8264 19.6011L30.4536 19.2318C26.3589 15.177 24.5564 14.7392 23.9714 14.7392C23.8046 14.7392 23.6718 14.7726 23.5765 14.8384C23.0141 15.2268 22.9779 17.1294 24.7268 21.2132C26.353 25.0101 29.0778 29.6784 32.3993 34.3581C35.7209 39.0382 39.2354 43.161 42.2954 45.9669C45.5951 48.9925 47.0821 49.3192 47.5683 49.3192C47.7361 49.3192 47.8725 49.2838 47.9737 49.2138C48.567 48.8041 48.5677 46.7659 46.6173 42.3704L46.5278 42.1686L46.7238 42.0631C46.9198 41.9576 47.1094 41.8537 47.2872 41.7544L47.522 41.6232L47.6303 41.867C49.0132 44.9816 50.3059 48.9401 48.6108 50.1114C48.325 50.3087 47.9806 50.4088 47.587 50.4088ZM47.5867 49.9283H47.5871L47.5868 50.1685L47.5867 49.9283Z"
        fill="#EE6723"></path>
      <path fill-rule="evenodd" clip-rule="evenodd"
        d="M41.1805 44.7959L41.1608 45.0353C40.8335 49.0154 39.9719 53.8003 37.7254 53.994C37.6802 53.998 37.6333 54 37.5865 54C36.0603 54 34.6165 51.8507 33.2951 47.6117C32.0449 43.6013 31.0747 38.2167 30.5634 32.4499C30.052 26.6843 30.0596 21.2154 30.5849 17.0507C31.1575 12.5125 32.2476 10.1424 33.8247 10.0064C33.8713 10.0022 33.9197 10 33.9674 10C35.0745 10 36.7431 11.2322 38.4512 16.9717L37.3359 17.1833C36.7656 15.2653 36.144 13.7054 35.527 12.6335C34.9562 11.642 34.4013 11.096 33.9642 11.096C33.9499 11.096 33.9354 11.0966 33.9212 11.0978C33.2376 11.1568 32.242 12.7867 31.687 17.186C31.171 21.276 31.1648 26.663 31.6695 32.3546C32.1744 38.047 33.1287 43.3511 34.3565 47.2896C34.9064 49.0536 35.5095 50.5073 36.1006 51.4938C36.6458 52.4035 37.1733 52.9045 37.5861 52.9045C37.6003 52.9045 37.6145 52.9038 37.6286 52.9026C38.2826 52.8463 39.5153 51.1502 40.0341 45.1827L41.1805 44.7959Z"
        fill="#EE6723"></path>
    </g>
  </symbol>
</svg>