<svg width="29.477997" height="23.942993" viewBox="0 0 29.478 23.943" fill="none" xmlns="http://www.w3.org/2000/svg" xmlns:xlink="http://www.w3.org/1999/xlink">
	<desc>
			Created with Pixso.
	</desc>
	<defs/>
	<path id="Vector" d="M26.4495 5.96704C26.469 6.22949 26.469 6.49048 26.469 6.75146C26.469 14.739 20.3895 23.943 9.279 23.943C5.856 23.943 2.676 22.9515 0 21.2295C0.486 21.285 0.954002 21.3044 1.4595 21.3044C4.17899 21.311 6.82147 20.4017 8.961 18.723C7.70013 18.7002 6.47787 18.2842 5.46486 17.5331C4.45185 16.782 3.69868 15.7334 3.3105 14.5334C3.684 14.589 4.059 14.6265 4.452 14.6265C4.9935 14.6265 5.538 14.5515 6.0435 14.421C4.67514 14.1448 3.44471 13.4031 2.56143 12.322C1.67815 11.2411 1.19654 9.88745 1.1985 8.49146L1.1985 8.4165C2.004 8.86499 2.9385 9.14551 3.9285 9.18298C3.09914 8.63184 2.41908 7.88403 1.94901 7.00623C1.47894 6.1283 1.23347 5.14783 1.2345 4.15198C1.2345 3.03003 1.533 2.00098 2.0565 1.104C3.57471 2.97156 5.46825 4.49939 7.6145 5.5885C9.76076 6.67761 12.1118 7.30383 14.5155 7.42651C14.4225 6.97644 14.3655 6.51001 14.3655 6.04199C14.3651 5.24841 14.5211 4.46265 14.8246 3.72937C15.1281 2.99609 15.5732 2.32996 16.1343 1.7688C16.6954 1.20764 17.3616 0.762573 18.0949 0.459106C18.8281 0.15564 19.6139 -0.000366211 20.4075 0C22.1475 0 23.718 0.729004 24.822 1.90796C26.1747 1.64648 27.4718 1.15259 28.656 0.448486C28.2051 1.84473 27.2606 3.02869 25.9995 3.77844C27.1992 3.64172 28.3717 3.32617 29.478 2.84253C28.6517 4.04712 27.6278 5.10352 26.4495 5.96704Z" fill="#FFFFFF" fill-opacity="0.780000" fill-rule="nonzero"/>
</svg>
