<svg width="65.000000" height="62.841431" viewBox="0 0 65 62.8414" fill="none" xmlns="http://www.w3.org/2000/svg" xmlns:xlink="http://www.w3.org/1999/xlink">
	<desc>
			Created with Pixso.
	</desc>
	<defs>
		<clipPath id="clip26_121">
			<rect id="logos:visual-studio-code" width="65.000000" height="62.841431" fill="white" fill-opacity="0"/>
		</clipPath>
		<linearGradient id="paint_linear_26_127_0" x1="32.373657" y1="0.000122" x2="32.373657" y2="62.764656" gradientUnits="userSpaceOnUse">
			<stop stop-color="#FFFFFF"/>
			<stop offset="1.000000" stop-color="#FFFFFF" stop-opacity="0.000000"/>
		</linearGradient>
	</defs>
	<g opacity="0.780000">
		<rect id="logos:visual-studio-code" width="65.000000" height="62.841431" fill="#FFFFFF" fill-opacity="0"/>
		<g clip-path="url(#clip26_121)">
			<mask id="mask26_122" mask-type="alpha" maskUnits="userSpaceOnUse" x="0.000122" y="0.000732" width="64.747078" height="62.764404">
				<path id="Vector" d="M45.9135 62.4968C46.4286 62.6926 46.9797 62.783 47.5322 62.7622C48.0848 62.7416 48.6271 62.6102 49.1254 62.3766L62.4557 56.1266C63.1422 55.8044 63.7216 55.3 64.1269 54.6714C64.5323 54.0427 64.7473 53.3153 64.7472 52.5729L64.7472 10.193C64.7473 9.45056 64.5322 8.72314 64.1269 8.09448C63.7215 7.46582 63.1422 6.96155 62.4557 6.6394L49.1256 0.38916C48.3724 0.0360107 47.5251 -0.0802002 46.701 0.0563965C45.877 0.193115 45.1169 0.57605 44.5261 1.15222L19.0068 23.8383L7.89075 15.6163C7.38934 15.2455 6.77045 15.0574 6.1416 15.0846C5.5127 15.1118 4.91339 15.3528 4.44775 15.7656L0.88269 18.9257C-0.292908 19.9675 -0.294189 21.7697 0.879639 22.8132L10.5197 31.3829L0.879639 39.9524C-0.294189 40.9962 -0.292908 42.798 0.88269 43.8401L4.44775 47C4.91339 47.4128 5.51263 47.6538 6.14154 47.681C6.77045 47.7084 7.38928 47.5203 7.89075 47.1494L19.0068 38.9274L44.5261 61.6133C44.9207 61.9984 45.3931 62.2993 45.9135 62.4968ZM48.5703 17.0608L29.2069 31.3829L48.5703 45.7048L48.5703 17.0608Z" fill="#FFFFFF" fill-opacity="1.000000" fill-rule="nonzero"/>
			</mask>
			<g mask="url(#mask26_122)">
				<path id="Vector" d="M62.4952 6.64917L49.1545 0.390259C48.4011 0.0367432 47.5535 -0.0797119 46.7291 0.0567627C45.9047 0.193359 45.1443 0.576172 44.553 1.15222L0.880127 39.9524C-0.294495 40.9962 -0.292969 42.7981 0.883118 43.8402L4.4505 47C4.91656 47.413 5.51617 47.6539 6.14545 47.6813C6.77472 47.7085 7.39392 47.5204 7.89575 47.1494L60.4879 8.27295C62.2523 6.96875 64.7865 8.19495 64.7865 10.3528L64.7865 10.2019C64.7865 9.45959 64.5715 8.73242 64.1661 8.10388C63.7608 7.47546 63.1816 6.97119 62.4952 6.64917Z" fill="#0065A9" fill-opacity="1.000000" fill-rule="nonzero"/>
			</g>
			<g mask="url(#mask26_122)">
				<path id="Vector" d="M62.4952 56.116L49.1545 62.3749C48.4011 62.7283 47.5535 62.8447 46.7292 62.7083C45.9048 62.5717 45.1443 62.189 44.553 61.6128L0.880127 22.8127C-0.294495 21.7692 -0.292969 19.967 0.883118 18.9252L4.4505 15.765C4.91663 15.3522 5.51624 15.1112 6.14551 15.084C6.77478 15.0568 7.39398 15.2449 7.89575 15.6158L60.4879 54.4922C62.2523 55.7963 64.7865 54.5702 64.7865 52.412L64.7865 52.5632C64.7865 53.3054 64.5714 54.0327 64.1661 54.6611C63.7608 55.2897 63.1816 55.7939 62.4952 56.116Z" fill="#007ACC" fill-opacity="1.000000" fill-rule="nonzero"/>
			</g>
			<g mask="url(#mask26_122)">
				<path id="Vector" d="M49.1127 62.3798C48.3591 62.733 47.5114 62.8494 46.687 62.7126C45.8625 62.576 45.102 62.1932 44.5106 61.6171C46.0038 63.0718 48.5574 62.0414 48.5574 59.9834L48.5574 2.78906C48.5574 0.731079 46.0038 -0.299316 44.5106 1.15564C45.102 0.579468 45.8625 0.196533 46.6869 0.0598145C47.5114 -0.0767822 48.359 0.0394287 49.1127 0.3927L62.4511 6.64294C63.1379 6.96472 63.7175 7.46899 64.1231 8.09766C64.5287 8.72632 64.744 9.45386 64.7439 10.1964L64.7439 52.5765C64.7439 54.0919 63.8527 55.4734 62.4511 56.13L49.1127 62.38L49.1127 62.3798Z" fill="#1F9CF0" fill-opacity="1.000000" fill-rule="nonzero"/>
			</g>
			<g mask="url(#mask26_122)">
				<path id="Vector" d="M45.9135 62.4963C46.4286 62.6921 46.9797 62.7825 47.5322 62.7617C48.0848 62.7411 48.6271 62.6099 49.1254 62.3762L62.4554 56.1259C63.142 55.804 63.7214 55.2996 64.1268 54.6709C64.5322 54.0422 64.7473 53.3148 64.7472 52.5724L64.7472 10.1925C64.7473 9.45007 64.5322 8.72266 64.1269 8.09412C63.7215 7.46545 63.1422 6.96106 62.4557 6.63904L49.1251 0.38855C48.3719 0.0354004 47.5247 -0.0808105 46.7007 0.0559082C45.8767 0.192505 45.1167 0.575439 44.5259 1.15149L19.0068 23.8378L7.89075 15.616C7.38934 15.2451 6.77045 15.0569 6.1416 15.0842C5.5127 15.1115 4.91339 15.3523 4.44775 15.7651L0.88269 18.9253C-0.292908 19.967 -0.294189 21.7692 0.879639 22.8127L10.5197 31.3824L0.879639 39.9519C-0.294189 40.9957 -0.292908 42.7976 0.88269 43.8396L4.44775 46.9995C4.91339 47.4124 5.51263 47.6533 6.14154 47.6807C6.77045 47.7079 7.38928 47.5198 7.89075 47.1489L19.0068 38.9269L44.5259 61.6129C44.9205 61.998 45.3931 62.2988 45.9135 62.4963ZM48.5703 17.0601L29.2069 31.3824L48.5703 45.7043L48.5703 17.0603L48.5703 17.0601Z" fill="url(#paint_linear_26_127_0)" fill-opacity="0.250000" fill-rule="nonzero"/>
			</g>
		</g>
	</g>
</svg>
