<svg width="100.250519" height="96.090759" viewBox="0 0 100.251 96.0908" fill="none" xmlns="http://www.w3.org/2000/svg" xmlns:xlink="http://www.w3.org/1999/xlink">
	<desc>
			Created with Pixso.
	</desc>
	<defs>
		<linearGradient id="paint_linear_68_8_0" x1="85.662720" y1="-11.447235" x2="-101.353363" y2="398.709167" gradientUnits="userSpaceOnUse">
			<stop stop-color="#FCFCFC" stop-opacity="0.000000"/>
			<stop offset="1.000000" stop-color="#FFFFFF" stop-opacity="0.501961"/>
		</linearGradient>
	</defs>
	<path id="“" d="M43.1039 6.56612L48.5366 14.5418C46.0388 16.1439 43.0554 18.6358 39.5861 22.0177C36.2743 25.4542 33.0345 29.4451 29.8667 33.9903C26.911 38.4329 24.8486 43.0977 23.6793 47.9847C25.8421 47.8542 27.868 48.1172 29.7571 48.7738C33.2206 49.9776 35.7226 52.1706 37.2633 55.3528C39.0161 58.4323 39.2085 61.9399 37.8406 65.8756C36.2538 70.441 33.6298 73.6755 29.9686 75.579C26.3621 77.3251 22.5123 77.4868 18.4191 76.0641C12.2794 73.9302 8.37397 70.1907 6.70277 64.8458C5.24372 59.3981 5.6359 53.447 7.87932 46.9925C9.35669 42.7419 11.7887 38.0291 15.1754 32.8542C18.7195 27.7339 22.8934 22.8325 27.6969 18.15C32.5005 13.4675 37.6361 9.60619 43.1039 6.56612ZM86.5542 21.6682L91.9869 29.6438C89.4892 31.2459 86.5057 33.7379 83.0364 37.1197C79.7246 40.5562 76.4848 44.5471 73.317 49.0924C70.3613 53.5349 68.2989 58.1997 67.1296 63.0867C69.2924 62.9562 71.3183 63.2192 73.2074 63.8759C76.6709 65.0796 79.1729 67.2726 80.7136 70.4548C82.4664 73.5343 82.6588 77.0419 81.2909 80.9776C79.7041 85.543 77.0801 88.7775 73.4189 90.681C69.8124 92.4271 65.9626 92.5888 61.8694 91.1662C55.7297 89.0322 51.8243 85.2927 50.1531 79.9478C48.694 74.5002 49.0862 68.5491 51.3296 62.0945C52.807 57.8439 55.239 53.1312 58.6257 47.9562C62.1698 42.8359 66.3437 37.9345 71.1472 33.252C75.9507 28.5695 81.0864 24.7082 86.5542 21.6682Z" fill="url(#paint_linear_68_8_0)" fill-opacity="1.000000" fill-rule="evenodd"/>
</svg>
